# xmcd
#
# Track frame offsets:
#	150
#	15973
#	31908
#	50462
#	61279
#	74392
#	85772
#	96640
#	109164
#	121878
#	134496
#	157807
#	175278
#	196836
#	212923
#	226675
#	243035
#	259348
#	281397
#	294508
#
# Disc length: 4188
#
# Revision: 1
# Processed by: cddbd v1.5.1PL0 Copyright (c) Steve Scherf et al.
# Submitted via: ExactAudioCopy v0.90b4
# Normalized: r0:DSETVAR1
#
DISCID=12105a14
DTITLE=Various Artist - Soul - Disc 1
DYEAR=2002
DGENRE=Soul
TTITLE0=Barry White - You See the Trouble with Me
TTITLE1=Jermaine Jackson - Lets Get Serious
TTITLE2=The Mary Jane Girls - All Night Long
TTITLE3=Len Barry - 1,2,3
TTITLE4=Jimmy Ruffin - What Becomes of the Broken Hea
TTITLE5=The Elgins - Heaven Must Have Sent You
TTITLE6=The Tams - Hey Girl Dont Bother Me
TTITLE7=The Isley Brothers - This Old Heart of Mine
TTITLE8=The Miracles - Shop Around
TTITLE9=Rare Earth - Get Ready
TTITLE10=The Temptations - Papa Was A Rolling Stone
TTITLE11=Omar - Theres Nothing Like this
TTITLE12=Will Downing - A Love Supreme
TTITLE13=Marlena Shaw - Lets Wade in the Water
TTITLE14=Yvonne Elliman - I Keep Hangin on
TTITLE15=Mica Paris - My One Temptation
TTITLE16=Atlantic Starr - Secret Lovers
TTITLE17=Stephanie Mills - The Medicine Song
TTITLE18=Gene Chandler - I Fooled You this Time
TTITLE19=Gladys Knight and the Pips - Help Me Make it Through the Ni
EXTD=
EXTT0=
EXTT1=
EXTT2=
EXTT3=
EXTT4=
EXTT5=
EXTT6=
EXTT7=
EXTT8=
EXTT9=
EXTT10=
EXTT11=
EXTT12=
EXTT13=
EXTT14=
EXTT15=
EXTT16=
EXTT17=
EXTT18=
EXTT19=
PLAYORDER=
